<?xml version="1.0" encoding="UTF-8"?>
<svg version="1.1" viewBox="0 0 2048 1638" width="1280" height="1280" xmlns="http://www.w3.org/2000/svg">
<path transform="translate(0)" d="m0 0h2048v1638h-2048z" fill="#05272C"/>
<path transform="translate(748,436)" d="m0 0 10 4 16 8 51 25 29 14 53 26 22 11 23 11 22 11 23 11 22 11 23 11 5 3 6-1 28-14 23-11 30-15 23-11 24-12 23-11 47-23 32-16 23-11 37-18 8-3 1 35v312l-4 4-5 1v2l-22 12-10 6-6 4-22 12-7 4h-2v2l-6 3-18 10-5 3h-2v2l-6 3-14 8-4 1v2l-7 2v2l-7 2v2l-7 2v2l-6 3-11 6-6 4-22 12h-2v2l-11 6-10 6-6 3h-2l1-5 6-9 12-20h2l1-4 4-7h2l1-4 14-22 6-9 4-7 3-6h2l1-4 16-26 7-10 6-11h2l1-4 13-21 1-193 1-13-23 11-33 17-35 18-12 7-2 3-1 177-2 4h-2l-1 4-7 11-4 7h-2l-1 4-4 7h-2l-1 4-4 7h-2v3h-2v3h-2l-2 5-8 14h-2v3h-2l-2 5-1 3h-2l-2 6h-2l-1 4-4 7h-2l-1 4-4 7-4-2-4-6v-3h-2v-3h-2l-5-9-2-2v-3h-2l-4-7-3-4v-3h-2l-4-7-1-4h-2l-4-7-1-4h-2l-4-7-1-4h-2v-3h-2l-3-5v-3h-2v-3h-2l-4-7-1-4h-2v-3h-2l-4-7-1-1-1-181-5-2-19-10-68-35-12-6v120l1 85 8 14 14 22 15 24 12 19 13 21 12 19 26 42 3 4v4l-5-1-14-8v-2l-5-1-17-10-23-13-5-3-26-15-11-6v-2l-4-1-14-8-19-11-14-8-11-6-9-6-6-3-24-14-14-8-8-5v-347z" fill="#11859C"/>
<path transform="translate(1048,338)" d="m0 0 10 3 36 16 35 15 58 25 67 29 9 4-1 3-39 20-78 39-19 10-76 38-5-2-74-37-19-10-118-59 4-3 27-12 49-21 25-11 37-16 19-8 44-19z" fill="#11859C"/>
<path transform="translate(749,652)" d="m0 0h1l4 14 3 12h2l1 4 11-1 10-1 13 1h13l2-2 4 6 1 26 1 49 3 5 10 9 16 8 16 4 3 1 2-2 7-1h7l5-3 7 2 1-2 4 5 5 5 9 15 12 19 13 21 12 19 26 42 3 4v4l-5-1-14-8v-2l-5-1-17-10-23-13-5-3-26-15-11-6v-2l-4-1-14-8-19-11-14-8-11-6-9-6-6-3-24-14-21-12v-109z" fill="#27BEDE"/>
<path transform="translate(1345,679)" d="m0 0 3 1 1 3 1 24 1 55v23l-5 3h-3v2l-22 12-10 6-6 4-22 12-7 4h-2v2l-6 3-18 10-5 3h-2v2l-6 3-14 8-4 1v2l-7 2v2l-7 2v2l-7 2v2l-6 3-11 6-6 4-22 12h-2v2l-11 6-10 6-6 3h-2l1-5 6-9 12-20h2l1-4 4-7h2l1-4 14-22 6-9 4-7 3-6h2l1-4 16-26 7-10 4-3-3 9-2 1-2 5 2-1 5-9 9-3 3 2v2l9 2 8 3 2 5 10-2 11-9 7-7 16-14 1-12 1-54 1-9 2-3 8 2 7-1h9l9 1 11-1 5 1 6-8z" fill="#27BEDE"/>
<path transform="translate(1115,676)" d="m0 0 3 2 1 9 1 50v38l-3 7-7 11-4 7h-2l-1 4-4 7h-2l-1 4-4 7h-2v3h-2v3h-2l-2 5-8 14h-2v3h-2l-2 5-1 3h-2l-2 6h-2l-1 4-4 7h-2l-1 4-4 7-4-2-4-6v-3h-2v-3h-2l-5-9-2-2v-3h-2l-4-7-3-4v-3h-2l-4-7-1-4h-2l-4-7-1-4h-2l-4-7-1-4h-2v-3h-2l-3-5v-3h-2v-3h-2l-4-7-1-4h-2v-3h-2l-3-5-1-4v-22l1-61 1-10 5 5 2 3 4-2 14-5 4 2 3 7 1 14 1 46 1 27 1 2 4 2 11 2 7 3h16l5-1 7-1 3 2 7 2 7-9 1-16 1-49 1-22 3-5 3-1 10 1 6-2 2-3h2l1-5z" fill="#27BFDF"/>
<path transform="translate(981,597)" d="m0 0 5 2 1 4 5 2h19l7 2 13 1v2h11l7 2 14-2 1-1h11v2h5l-8 4-4 4-14 4h-11l-16-6-14-5 1 14v25l1 34 1 13 1 4 10 2h23l15 1 6-1 4 1 5-1 3 1 1-37v-50l-1-7h-2l1-3 4-2h11l2 2 12-1 3-2h6v132h-1l-1-50-1-9h-3l-2 5-4 4-6 2-12-1-3 5-1 25-1 50-1 12-8 11-1-3h-6l-5-2-9 1-1 1h-16l-10-4-8-1-5-3-1-2-2-78-2-12-3-5-11 3-6 3h-4l-5-7-1 14-1 56h-1v-94l1-59h2z" fill="#1AA1BD"/>
<path transform="translate(1179,457)" d="m0 0h10l4 2-2 8 2 1-48 24-19 10-76 38-5-2-74-37-19-10-20-10 4-1 2-4 2-1v-3h15l9 2 8-1h11l6 1 3-1 28-3 7-3 8 1v-2l12-1 4 1 6-2 1 3 5-1 5-3 8 1 2 2 8 1v-2l11-2h33l9-1h7l8-1z" fill="#0E6D7E"/>
<path transform="translate(1346,599)" d="m0 0 3 3 1 8 1 65v87h-1l-1-63-1-16-1-3-4 1-6 8-6-1-16 1-8-1h-8l-4 1-7-3-2 12-1 59-1 7-15 14-8 7-10 9-6 2h-6l-2-5-5-1-12-4-3-3-9 3-5 9h-2l2-6h2l1-5v-2-3l4-7h2l1-4 15-25 1-27 1-5 5 1 7 2 12-3 14-2h10l4-10 1-9 2-68 1-9h3l1-2 18 1 6 1h10l3-1h11l4-4z" fill="#1AA1BD"/>
<path transform="translate(749,583)" d="m0 0 2 3v2h2l3 7v6l5 1v3l9-2h8l10 2h10l9 2 6 7 1 5 1 51 1 28 1 6h8l6 1h9l10 2 4 2h7l2-2 4 1 2 5 2 34 3 1 9 15 12 19 2 5-5-5-3 1-6-1-4 3h-9l-5 1-2 2-9-3-12-3-14-7-13-12-1-3-1-51-1-24-3-5-2 2h-19l-7-1-10 1-8 1-3-1-1-4h-2l-4-13v-5l-2-1-1-2-1 19h-1v-78z" fill="#1AA1BD"/>
<path transform="translate(991,1006)" d="m0 0h29l6 12 15 37 8 19 2-3 15-36 11-26 2-3h28l2 2v102l-2 1h-23l-2-4 1-42h-2l-3 11-4 8-4 11-5 11-4 4h-26l-5-13-5-11-8-20-1 44-2 1h-23z" fill="#27BDDD"/>
<path transform="translate(1283,512)" d="m0 0h2v50l-1 21-4 9-3 5-8 3-11 3-4-2-6 2-6 1-7-1-4-1-1 4-1 17-1 122h-1v-191l1-13-3-1 54-26z" fill="#0E6D7E"/>
<path transform="translate(814,513)" d="m0 0 5 1 29 14 19 9 5 2v122l1 86h-2l-1-41-1-118-2 1-2 5h-2v2l-4 1-5-2-7-1-3 3h-10l-3-3-10-3-1 4-4-4-1-7-1-22z" fill="#0E6D7E"/>
<path transform="translate(1013,723)" d="m0 0h2l1 14 2 4 3 1h7l10 2 8 1 12-1 5 1 9-1 9 1 2-6 1-16h1v45l-1 12-8 11-1-3h-6l-5-2-9 1-1 1h-16l-10-4-8-1-5-3-1-2-1-39z" fill="#1BA2BE"/>
<path transform="translate(1114,605)" d="m0 0h6v132h-1l-1-50-1-9h-3l-2 5-4 4-6 2-12-1-3 5-1 22h-1l-1-47v-50l-1-7h-2l1-3 4-2h11l2 2 12-1z" fill="#1AA1BD"/>
<path transform="translate(1013,651)" d="m0 0h1l1 34 1 13 1 4 10 2h23l15 1 6-1 4 1 5-1 3 1 1-28h1l1 41-1 5-1 16-3 6-5 1-6-1-7 1-8-1-10 1-15-2-2-1h-8l-4-4-1-2-2-40z" fill="#1897B0"/>
<path transform="translate(813,710)" d="m0 0h2l1 24 2 7 5 1 7-1 7 1 2-1h7l5 3h13l4-1 3 2v2l3 1 9 15 12 19 2 5-5-5-3 1-6-1-4 3h-9l-5 1-2 2-9-3-12-3-14-7-13-12-1-3z" fill="#1AA1BD"/>
<path transform="translate(1283,690)" d="m0 0 2 3-1 42-2 7-2 6-3 2h-6v-3l-18 2-18-2-5-1-5 4 2-5 1-2 1-27 1-5 5 1 7 2 12-3 14-2h10l4-10z" fill="#1796AF"/>
<path transform="translate(814,677)" d="m0 0h1l1 21 1 6h8l6 1h9l10 2 4 2h7l2-2 4 1 2 5 1 31-6 1h-13l-5-3h-7l-7 1-4-1-9 1-3-3-1-6-1-24z" fill="#1897B0"/>
<path transform="translate(1346,599)" d="m0 0 3 3 1 8v31h-1l-1-10-4 1-1 4-4 5-3 1-8-1-5 1h-15l-20-1v2h-2v6h-1v-27l1-9h3l1-2 18 1 6 1h10l3-1h11l4-4z" fill="#1897B0"/>
<path transform="translate(749,583)" d="m0 0 2 3v2h2l3 7v6l5 1v3l9-2h8l10 2h10l9 2 6 7 1 5v29h-1l-1-11-4-3h-7l-4-1h-26l-12 1-6-12-2-5-1-1-1 12h-1v-30z" fill="#1897B0"/>
<path transform="translate(981,597)" d="m0 0 5 2 1 4 5 2h19l7 2 13 1v2h11l7 2 14-2 1-1h11v2h5l-8 4-4 4-14 4h-11l-16-6-14-5 1 14v23l-2 1-2-15-18 2-5-4-5-5-3 2v-31h2z" fill="#1897B0"/>
<path transform="translate(1114,605)" d="m0 0h6v79h-1l-1-53-4 2-5 5h-7l-4 1-3-1-7 2-1 3-1 12h-1l-1-37-1-7h-2l1-3 4-2h11l2 2 12-1z" fill="#1897B0"/>
<path transform="translate(1048,338)" d="m0 0 10 3 20 9 2 4-12-2-2-1-14-2v-2l-11 2-2-1v2l-17 6-10 3-3 1-1-3 24-12z" fill="#1691A9"/>
<path transform="translate(1079,1006)" d="m0 0h28l2 2v102l-2 1h-23l-2-4v-45h2l1 47 21 1v-102l-27-1z" fill="#128094"/>
<path transform="translate(1220,759)" d="m0 0v3l-9 16h-3l1-4 1-2h2l1-4 5-8z" fill="#21ACC9"/>
<path transform="translate(1207,780)" d="m0 0 1 2-3 7-6 3 2-5z" fill="#23B2D0"/>
</svg>
